<?xml version="1.0" encoding="UTF-8"?>
<svg width="1200" height="1200" viewBox="0 0 1200 1200" xmlns="http://www.w3.org/2000/svg" xmlns:xlink="http://www.w3.org/1999/xlink">
  <rect width="1200" height="1200" fill="#ffffff"/>
  <g transform="translate(30, 30) scale(1.3194444444444444)">
    <rect x="32" y="32" width="32" height="32" fill="#000000"/>
    <rect x="64" y="32" width="32" height="32" fill="#000000"/>
    <rect x="96" y="32" width="32" height="32" fill="#000000"/>
    <rect x="128" y="32" width="32" height="32" fill="#000000"/>
    <rect x="160" y="32" width="32" height="32" fill="#000000"/>
    <rect x="192" y="32" width="32" height="32" fill="#000000"/>
    <rect x="224" y="32" width="32" height="32" fill="#000000"/>
    <rect x="320" y="32" width="32" height="32" fill="#000000"/>
    <rect x="416" y="32" width="32" height="32" fill="#000000"/>
    <rect x="480" y="32" width="32" height="32" fill="#000000"/>
    <rect x="608" y="32" width="32" height="32" fill="#000000"/>
    <rect x="640" y="32" width="32" height="32" fill="#000000"/>
    <rect x="672" y="32" width="32" height="32" fill="#000000"/>
    <rect x="704" y="32" width="32" height="32" fill="#000000"/>
    <rect x="736" y="32" width="32" height="32" fill="#000000"/>
    <rect x="768" y="32" width="32" height="32" fill="#000000"/>
    <rect x="800" y="32" width="32" height="32" fill="#000000"/>
    <rect x="32" y="64" width="32" height="32" fill="#000000"/>
    <rect x="224" y="64" width="32" height="32" fill="#000000"/>
    <rect x="352" y="64" width="32" height="32" fill="#000000"/>
    <rect x="384" y="64" width="32" height="32" fill="#000000"/>
    <rect x="416" y="64" width="32" height="32" fill="#000000"/>
    <rect x="448" y="64" width="32" height="32" fill="#000000"/>
    <rect x="480" y="64" width="32" height="32" fill="#000000"/>
    <rect x="512" y="64" width="32" height="32" fill="#000000"/>
    <rect x="544" y="64" width="32" height="32" fill="#000000"/>
    <rect x="608" y="64" width="32" height="32" fill="#000000"/>
    <rect x="800" y="64" width="32" height="32" fill="#000000"/>
    <rect x="32" y="96" width="32" height="32" fill="#000000"/>
    <rect x="96" y="96" width="32" height="32" fill="#000000"/>
    <rect x="128" y="96" width="32" height="32" fill="#000000"/>
    <rect x="160" y="96" width="32" height="32" fill="#000000"/>
    <rect x="224" y="96" width="32" height="32" fill="#000000"/>
    <rect x="288" y="96" width="32" height="32" fill="#000000"/>
    <rect x="320" y="96" width="32" height="32" fill="#000000"/>
    <rect x="352" y="96" width="32" height="32" fill="#000000"/>
    <rect x="416" y="96" width="32" height="32" fill="#000000"/>
    <rect x="480" y="96" width="32" height="32" fill="#000000"/>
    <rect x="512" y="96" width="32" height="32" fill="#000000"/>
    <rect x="608" y="96" width="32" height="32" fill="#000000"/>
    <rect x="672" y="96" width="32" height="32" fill="#000000"/>
    <rect x="704" y="96" width="32" height="32" fill="#000000"/>
    <rect x="736" y="96" width="32" height="32" fill="#000000"/>
    <rect x="800" y="96" width="32" height="32" fill="#000000"/>
    <rect x="32" y="128" width="32" height="32" fill="#000000"/>
    <rect x="96" y="128" width="32" height="32" fill="#000000"/>
    <rect x="128" y="128" width="32" height="32" fill="#000000"/>
    <rect x="160" y="128" width="32" height="32" fill="#000000"/>
    <rect x="224" y="128" width="32" height="32" fill="#000000"/>
    <rect x="320" y="128" width="32" height="32" fill="#000000"/>
    <rect x="352" y="128" width="32" height="32" fill="#000000"/>
    <rect x="384" y="128" width="32" height="32" fill="#000000"/>
    <rect x="448" y="128" width="32" height="32" fill="#000000"/>
    <rect x="480" y="128" width="32" height="32" fill="#000000"/>
    <rect x="608" y="128" width="32" height="32" fill="#000000"/>
    <rect x="672" y="128" width="32" height="32" fill="#000000"/>
    <rect x="704" y="128" width="32" height="32" fill="#000000"/>
    <rect x="736" y="128" width="32" height="32" fill="#000000"/>
    <rect x="800" y="128" width="32" height="32" fill="#000000"/>
    <rect x="32" y="160" width="32" height="32" fill="#000000"/>
    <rect x="96" y="160" width="32" height="32" fill="#000000"/>
    <rect x="128" y="160" width="32" height="32" fill="#000000"/>
    <rect x="160" y="160" width="32" height="32" fill="#000000"/>
    <rect x="224" y="160" width="32" height="32" fill="#000000"/>
    <rect x="352" y="160" width="32" height="32" fill="#000000"/>
    <rect x="608" y="160" width="32" height="32" fill="#000000"/>
    <rect x="672" y="160" width="32" height="32" fill="#000000"/>
    <rect x="704" y="160" width="32" height="32" fill="#000000"/>
    <rect x="736" y="160" width="32" height="32" fill="#000000"/>
    <rect x="800" y="160" width="32" height="32" fill="#000000"/>
    <rect x="32" y="192" width="32" height="32" fill="#000000"/>
    <rect x="224" y="192" width="32" height="32" fill="#000000"/>
    <rect x="320" y="192" width="32" height="32" fill="#000000"/>
    <rect x="448" y="192" width="32" height="32" fill="#000000"/>
    <rect x="480" y="192" width="32" height="32" fill="#000000"/>
    <rect x="512" y="192" width="32" height="32" fill="#000000"/>
    <rect x="544" y="192" width="32" height="32" fill="#000000"/>
    <rect x="608" y="192" width="32" height="32" fill="#000000"/>
    <rect x="800" y="192" width="32" height="32" fill="#000000"/>
    <rect x="32" y="224" width="32" height="32" fill="#000000"/>
    <rect x="64" y="224" width="32" height="32" fill="#000000"/>
    <rect x="96" y="224" width="32" height="32" fill="#000000"/>
    <rect x="128" y="224" width="32" height="32" fill="#000000"/>
    <rect x="160" y="224" width="32" height="32" fill="#000000"/>
    <rect x="192" y="224" width="32" height="32" fill="#000000"/>
    <rect x="224" y="224" width="32" height="32" fill="#000000"/>
    <rect x="288" y="224" width="32" height="32" fill="#000000"/>
    <rect x="352" y="224" width="32" height="32" fill="#000000"/>
    <rect x="416" y="224" width="32" height="32" fill="#000000"/>
    <rect x="480" y="224" width="32" height="32" fill="#000000"/>
    <rect x="544" y="224" width="32" height="32" fill="#000000"/>
    <rect x="608" y="224" width="32" height="32" fill="#000000"/>
    <rect x="640" y="224" width="32" height="32" fill="#000000"/>
    <rect x="672" y="224" width="32" height="32" fill="#000000"/>
    <rect x="704" y="224" width="32" height="32" fill="#000000"/>
    <rect x="736" y="224" width="32" height="32" fill="#000000"/>
    <rect x="768" y="224" width="32" height="32" fill="#000000"/>
    <rect x="800" y="224" width="32" height="32" fill="#000000"/>
    <rect x="288" y="256" width="32" height="32" fill="#000000"/>
    <rect x="320" y="256" width="32" height="32" fill="#000000"/>
    <rect x="352" y="256" width="32" height="32" fill="#000000"/>
    <rect x="416" y="256" width="32" height="32" fill="#000000"/>
    <rect x="448" y="256" width="32" height="32" fill="#000000"/>
    <rect x="544" y="256" width="32" height="32" fill="#000000"/>
    <rect x="32" y="288" width="32" height="32" fill="#000000"/>
    <rect x="64" y="288" width="32" height="32" fill="#000000"/>
    <rect x="96" y="288" width="32" height="32" fill="#000000"/>
    <rect x="160" y="288" width="32" height="32" fill="#000000"/>
    <rect x="192" y="288" width="32" height="32" fill="#000000"/>
    <rect x="224" y="288" width="32" height="32" fill="#000000"/>
    <rect x="256" y="288" width="32" height="32" fill="#000000"/>
    <rect x="288" y="288" width="32" height="32" fill="#000000"/>
    <rect x="352" y="288" width="32" height="32" fill="#000000"/>
    <rect x="384" y="288" width="32" height="32" fill="#000000"/>
    <rect x="416" y="288" width="32" height="32" fill="#000000"/>
    <rect x="512" y="288" width="32" height="32" fill="#000000"/>
    <rect x="544" y="288" width="32" height="32" fill="#000000"/>
    <rect x="576" y="288" width="32" height="32" fill="#000000"/>
    <rect x="608" y="288" width="32" height="32" fill="#000000"/>
    <rect x="736" y="288" width="32" height="32" fill="#000000"/>
    <rect x="64" y="320" width="32" height="32" fill="#000000"/>
    <rect x="128" y="320" width="32" height="32" fill="#000000"/>
    <rect x="192" y="320" width="32" height="32" fill="#000000"/>
    <rect x="256" y="320" width="32" height="32" fill="#000000"/>
    <rect x="288" y="320" width="32" height="32" fill="#000000"/>
    <rect x="352" y="320" width="32" height="32" fill="#000000"/>
    <rect x="384" y="320" width="32" height="32" fill="#000000"/>
    <rect x="512" y="320" width="32" height="32" fill="#000000"/>
    <rect x="544" y="320" width="32" height="32" fill="#000000"/>
    <rect x="576" y="320" width="32" height="32" fill="#000000"/>
    <rect x="608" y="320" width="32" height="32" fill="#000000"/>
    <rect x="640" y="320" width="32" height="32" fill="#000000"/>
    <rect x="32" y="352" width="32" height="32" fill="#000000"/>
    <rect x="160" y="352" width="32" height="32" fill="#000000"/>
    <rect x="224" y="352" width="32" height="32" fill="#000000"/>
    <rect x="320" y="352" width="32" height="32" fill="#000000"/>
    <rect x="480" y="352" width="32" height="32" fill="#000000"/>
    <rect x="576" y="352" width="32" height="32" fill="#000000"/>
    <rect x="640" y="352" width="32" height="32" fill="#000000"/>
    <rect x="672" y="352" width="32" height="32" fill="#000000"/>
    <rect x="736" y="352" width="32" height="32" fill="#000000"/>
    <rect x="768" y="352" width="32" height="32" fill="#000000"/>
    <rect x="800" y="352" width="32" height="32" fill="#000000"/>
    <rect x="128" y="384" width="32" height="32" fill="#000000"/>
    <rect x="160" y="384" width="32" height="32" fill="#000000"/>
    <rect x="384" y="384" width="32" height="32" fill="#000000"/>
    <rect x="416" y="384" width="32" height="32" fill="#000000"/>
    <rect x="448" y="384" width="32" height="32" fill="#000000"/>
    <rect x="480" y="384" width="32" height="32" fill="#000000"/>
    <rect x="544" y="384" width="32" height="32" fill="#000000"/>
    <rect x="576" y="384" width="32" height="32" fill="#000000"/>
    <rect x="608" y="384" width="32" height="32" fill="#000000"/>
    <rect x="672" y="384" width="32" height="32" fill="#000000"/>
    <rect x="768" y="384" width="32" height="32" fill="#000000"/>
    <rect x="224" y="416" width="32" height="32" fill="#000000"/>
    <rect x="288" y="416" width="32" height="32" fill="#000000"/>
    <rect x="384" y="416" width="32" height="32" fill="#000000"/>
    <rect x="416" y="416" width="32" height="32" fill="#000000"/>
    <rect x="544" y="416" width="32" height="32" fill="#000000"/>
    <rect x="576" y="416" width="32" height="32" fill="#000000"/>
    <rect x="608" y="416" width="32" height="32" fill="#000000"/>
    <rect x="672" y="416" width="32" height="32" fill="#000000"/>
    <rect x="704" y="416" width="32" height="32" fill="#000000"/>
    <rect x="736" y="416" width="32" height="32" fill="#000000"/>
    <rect x="768" y="416" width="32" height="32" fill="#000000"/>
    <rect x="800" y="416" width="32" height="32" fill="#000000"/>
    <rect x="64" y="448" width="32" height="32" fill="#000000"/>
    <rect x="96" y="448" width="32" height="32" fill="#000000"/>
    <rect x="160" y="448" width="32" height="32" fill="#000000"/>
    <rect x="256" y="448" width="32" height="32" fill="#000000"/>
    <rect x="288" y="448" width="32" height="32" fill="#000000"/>
    <rect x="384" y="448" width="32" height="32" fill="#000000"/>
    <rect x="416" y="448" width="32" height="32" fill="#000000"/>
    <rect x="512" y="448" width="32" height="32" fill="#000000"/>
    <rect x="544" y="448" width="32" height="32" fill="#000000"/>
    <rect x="576" y="448" width="32" height="32" fill="#000000"/>
    <rect x="704" y="448" width="32" height="32" fill="#000000"/>
    <rect x="32" y="480" width="32" height="32" fill="#000000"/>
    <rect x="96" y="480" width="32" height="32" fill="#000000"/>
    <rect x="192" y="480" width="32" height="32" fill="#000000"/>
    <rect x="224" y="480" width="32" height="32" fill="#000000"/>
    <rect x="256" y="480" width="32" height="32" fill="#000000"/>
    <rect x="288" y="480" width="32" height="32" fill="#000000"/>
    <rect x="320" y="480" width="32" height="32" fill="#000000"/>
    <rect x="352" y="480" width="32" height="32" fill="#000000"/>
    <rect x="640" y="480" width="32" height="32" fill="#000000"/>
    <rect x="736" y="480" width="32" height="32" fill="#000000"/>
    <rect x="768" y="480" width="32" height="32" fill="#000000"/>
    <rect x="800" y="480" width="32" height="32" fill="#000000"/>
    <rect x="64" y="512" width="32" height="32" fill="#000000"/>
    <rect x="128" y="512" width="32" height="32" fill="#000000"/>
    <rect x="160" y="512" width="32" height="32" fill="#000000"/>
    <rect x="256" y="512" width="32" height="32" fill="#000000"/>
    <rect x="288" y="512" width="32" height="32" fill="#000000"/>
    <rect x="320" y="512" width="32" height="32" fill="#000000"/>
    <rect x="352" y="512" width="32" height="32" fill="#000000"/>
    <rect x="416" y="512" width="32" height="32" fill="#000000"/>
    <rect x="448" y="512" width="32" height="32" fill="#000000"/>
    <rect x="480" y="512" width="32" height="32" fill="#000000"/>
    <rect x="512" y="512" width="32" height="32" fill="#000000"/>
    <rect x="576" y="512" width="32" height="32" fill="#000000"/>
    <rect x="608" y="512" width="32" height="32" fill="#000000"/>
    <rect x="672" y="512" width="32" height="32" fill="#000000"/>
    <rect x="768" y="512" width="32" height="32" fill="#000000"/>
    <rect x="32" y="544" width="32" height="32" fill="#000000"/>
    <rect x="224" y="544" width="32" height="32" fill="#000000"/>
    <rect x="256" y="544" width="32" height="32" fill="#000000"/>
    <rect x="384" y="544" width="32" height="32" fill="#000000"/>
    <rect x="416" y="544" width="32" height="32" fill="#000000"/>
    <rect x="512" y="544" width="32" height="32" fill="#000000"/>
    <rect x="544" y="544" width="32" height="32" fill="#000000"/>
    <rect x="576" y="544" width="32" height="32" fill="#000000"/>
    <rect x="608" y="544" width="32" height="32" fill="#000000"/>
    <rect x="640" y="544" width="32" height="32" fill="#000000"/>
    <rect x="672" y="544" width="32" height="32" fill="#000000"/>
    <rect x="704" y="544" width="32" height="32" fill="#000000"/>
    <rect x="736" y="544" width="32" height="32" fill="#000000"/>
    <rect x="288" y="576" width="32" height="32" fill="#000000"/>
    <rect x="320" y="576" width="32" height="32" fill="#000000"/>
    <rect x="352" y="576" width="32" height="32" fill="#000000"/>
    <rect x="384" y="576" width="32" height="32" fill="#000000"/>
    <rect x="416" y="576" width="32" height="32" fill="#000000"/>
    <rect x="448" y="576" width="32" height="32" fill="#000000"/>
    <rect x="544" y="576" width="32" height="32" fill="#000000"/>
    <rect x="672" y="576" width="32" height="32" fill="#000000"/>
    <rect x="704" y="576" width="32" height="32" fill="#000000"/>
    <rect x="768" y="576" width="32" height="32" fill="#000000"/>
    <rect x="32" y="608" width="32" height="32" fill="#000000"/>
    <rect x="64" y="608" width="32" height="32" fill="#000000"/>
    <rect x="96" y="608" width="32" height="32" fill="#000000"/>
    <rect x="128" y="608" width="32" height="32" fill="#000000"/>
    <rect x="160" y="608" width="32" height="32" fill="#000000"/>
    <rect x="192" y="608" width="32" height="32" fill="#000000"/>
    <rect x="224" y="608" width="32" height="32" fill="#000000"/>
    <rect x="288" y="608" width="32" height="32" fill="#000000"/>
    <rect x="352" y="608" width="32" height="32" fill="#000000"/>
    <rect x="544" y="608" width="32" height="32" fill="#000000"/>
    <rect x="608" y="608" width="32" height="32" fill="#000000"/>
    <rect x="672" y="608" width="32" height="32" fill="#000000"/>
    <rect x="704" y="608" width="32" height="32" fill="#000000"/>
    <rect x="768" y="608" width="32" height="32" fill="#000000"/>
    <rect x="800" y="608" width="32" height="32" fill="#000000"/>
    <rect x="32" y="640" width="32" height="32" fill="#000000"/>
    <rect x="224" y="640" width="32" height="32" fill="#000000"/>
    <rect x="288" y="640" width="32" height="32" fill="#000000"/>
    <rect x="448" y="640" width="32" height="32" fill="#000000"/>
    <rect x="480" y="640" width="32" height="32" fill="#000000"/>
    <rect x="544" y="640" width="32" height="32" fill="#000000"/>
    <rect x="672" y="640" width="32" height="32" fill="#000000"/>
    <rect x="704" y="640" width="32" height="32" fill="#000000"/>
    <rect x="800" y="640" width="32" height="32" fill="#000000"/>
    <rect x="32" y="672" width="32" height="32" fill="#000000"/>
    <rect x="96" y="672" width="32" height="32" fill="#000000"/>
    <rect x="128" y="672" width="32" height="32" fill="#000000"/>
    <rect x="160" y="672" width="32" height="32" fill="#000000"/>
    <rect x="224" y="672" width="32" height="32" fill="#000000"/>
    <rect x="288" y="672" width="32" height="32" fill="#000000"/>
    <rect x="352" y="672" width="32" height="32" fill="#000000"/>
    <rect x="416" y="672" width="32" height="32" fill="#000000"/>
    <rect x="544" y="672" width="32" height="32" fill="#000000"/>
    <rect x="576" y="672" width="32" height="32" fill="#000000"/>
    <rect x="608" y="672" width="32" height="32" fill="#000000"/>
    <rect x="640" y="672" width="32" height="32" fill="#000000"/>
    <rect x="672" y="672" width="32" height="32" fill="#000000"/>
    <rect x="704" y="672" width="32" height="32" fill="#000000"/>
    <rect x="32" y="704" width="32" height="32" fill="#000000"/>
    <rect x="96" y="704" width="32" height="32" fill="#000000"/>
    <rect x="128" y="704" width="32" height="32" fill="#000000"/>
    <rect x="160" y="704" width="32" height="32" fill="#000000"/>
    <rect x="224" y="704" width="32" height="32" fill="#000000"/>
    <rect x="320" y="704" width="32" height="32" fill="#000000"/>
    <rect x="352" y="704" width="32" height="32" fill="#000000"/>
    <rect x="384" y="704" width="32" height="32" fill="#000000"/>
    <rect x="416" y="704" width="32" height="32" fill="#000000"/>
    <rect x="448" y="704" width="32" height="32" fill="#000000"/>
    <rect x="480" y="704" width="32" height="32" fill="#000000"/>
    <rect x="512" y="704" width="32" height="32" fill="#000000"/>
    <rect x="544" y="704" width="32" height="32" fill="#000000"/>
    <rect x="640" y="704" width="32" height="32" fill="#000000"/>
    <rect x="672" y="704" width="32" height="32" fill="#000000"/>
    <rect x="704" y="704" width="32" height="32" fill="#000000"/>
    <rect x="736" y="704" width="32" height="32" fill="#000000"/>
    <rect x="32" y="736" width="32" height="32" fill="#000000"/>
    <rect x="96" y="736" width="32" height="32" fill="#000000"/>
    <rect x="128" y="736" width="32" height="32" fill="#000000"/>
    <rect x="160" y="736" width="32" height="32" fill="#000000"/>
    <rect x="224" y="736" width="32" height="32" fill="#000000"/>
    <rect x="288" y="736" width="32" height="32" fill="#000000"/>
    <rect x="320" y="736" width="32" height="32" fill="#000000"/>
    <rect x="416" y="736" width="32" height="32" fill="#000000"/>
    <rect x="448" y="736" width="32" height="32" fill="#000000"/>
    <rect x="480" y="736" width="32" height="32" fill="#000000"/>
    <rect x="512" y="736" width="32" height="32" fill="#000000"/>
    <rect x="544" y="736" width="32" height="32" fill="#000000"/>
    <rect x="608" y="736" width="32" height="32" fill="#000000"/>
    <rect x="672" y="736" width="32" height="32" fill="#000000"/>
    <rect x="800" y="736" width="32" height="32" fill="#000000"/>
    <rect x="32" y="768" width="32" height="32" fill="#000000"/>
    <rect x="224" y="768" width="32" height="32" fill="#000000"/>
    <rect x="288" y="768" width="32" height="32" fill="#000000"/>
    <rect x="320" y="768" width="32" height="32" fill="#000000"/>
    <rect x="416" y="768" width="32" height="32" fill="#000000"/>
    <rect x="448" y="768" width="32" height="32" fill="#000000"/>
    <rect x="480" y="768" width="32" height="32" fill="#000000"/>
    <rect x="576" y="768" width="32" height="32" fill="#000000"/>
    <rect x="672" y="768" width="32" height="32" fill="#000000"/>
    <rect x="704" y="768" width="32" height="32" fill="#000000"/>
    <rect x="768" y="768" width="32" height="32" fill="#000000"/>
    <rect x="32" y="800" width="32" height="32" fill="#000000"/>
    <rect x="64" y="800" width="32" height="32" fill="#000000"/>
    <rect x="96" y="800" width="32" height="32" fill="#000000"/>
    <rect x="128" y="800" width="32" height="32" fill="#000000"/>
    <rect x="160" y="800" width="32" height="32" fill="#000000"/>
    <rect x="192" y="800" width="32" height="32" fill="#000000"/>
    <rect x="224" y="800" width="32" height="32" fill="#000000"/>
    <rect x="288" y="800" width="32" height="32" fill="#000000"/>
    <rect x="320" y="800" width="32" height="32" fill="#000000"/>
    <rect x="384" y="800" width="32" height="32" fill="#000000"/>
    <rect x="416" y="800" width="32" height="32" fill="#000000"/>
    <rect x="448" y="800" width="32" height="32" fill="#000000"/>
    <rect x="480" y="800" width="32" height="32" fill="#000000"/>
    <rect x="512" y="800" width="32" height="32" fill="#000000"/>
    <rect x="544" y="800" width="32" height="32" fill="#000000"/>
    <rect x="576" y="800" width="32" height="32" fill="#000000"/>
    <rect x="608" y="800" width="32" height="32" fill="#000000"/>
    <rect x="640" y="800" width="32" height="32" fill="#000000"/>
    <rect x="768" y="800" width="32" height="32" fill="#000000"/>
    <rect x="800" y="800" width="32" height="32" fill="#000000"/>
  </g>
</svg>